<svg xmlns="http://www.w3.org/2000/svg">
  <defs>
    <!-- astro icon -->
    <symbol id="astro" viewBox="0 0 85 107">
      <path d="M27.5894 91.1365C22.7555 86.7178 21.3444 77.4335 23.3583 70.7072C26.8503 74.948 31.6888 76.2914 36.7005 77.0497C44.4375 78.2199 52.0359 77.7822 59.2232 74.2459C60.0454 73.841 60.8052 73.3027 61.7036 72.7574C62.378 74.714 62.5535 76.6892 62.318 78.6996C61.7452 83.5957 59.3086 87.3778 55.4332 90.2448C53.8835 91.3916 52.2437 92.4167 50.6432 93.4979C45.7262 96.8213 44.3959 100.718 46.2435 106.386C46.2874 106.525 46.3267 106.663 46.426 107C43.9155 105.876 42.0817 104.24 40.6845 102.089C39.2087 99.8193 38.5066 97.3081 38.4696 94.5909C38.4511 93.2686 38.4511 91.9345 38.2733 90.6309C37.8391 87.4527 36.3471 86.0297 33.5364 85.9478C30.6518 85.8636 28.37 87.6469 27.7649 90.4554C27.7187 90.6707 27.6517 90.8837 27.5847 91.1341L27.5894 91.1365Z" fill="#F041FF"/>
      <path d="M0 69.5866C0 69.5866 14.3139 62.6137 28.6678 62.6137L39.4901 29.1204C39.8953 27.5007 41.0783 26.3999 42.4139 26.3999C43.7495 26.3999 44.9325 27.5007 45.3377 29.1204L56.1601 62.6137C73.1601 62.6137 84.8278 69.5866 84.8278 69.5866C84.8278 69.5866 60.5145 3.35233 60.467 3.21944C59.7692 1.2612 58.5911 0 57.0029 0H27.8274C26.2392 0 25.1087 1.2612 24.3634 3.21944C24.3108 3.34983 0 69.5866 0 69.5866Z" fill="currentColor"/>
    </symbol>

    <!-- javascript icon -->
    <symbol id="javascript" viewBox="0 0 630 630">
      <rect width="630" height="630" fill="#f7df1e"/>
      <path fill="black" d="m423.2 492.19c12.69 20.72 29.2 35.95 58.4 35.95 24.53 0 40.2-12.26 40.2-29.2 0-20.3-16.1-27.49-43.1-39.3l-14.8-6.35c-42.72-18.2-71.1-41-71.1-89.2 0-44.4 33.83-78.2 86.7-78.2 37.64 0 64.7 13.1 84.2 47.4l-46.1 29.6c-10.15-18.2-21.1-25.37-38.1-25.37-17.34 0-28.33 11-28.33 25.37 0 17.76 11 24.95 36.4 35.95l14.8 6.34c50.3 21.57 78.7 43.56 78.7 93 0 53.3-41.87 82.5-98.1 82.5-54.98 0-90.5-26.2-107.88-60.54zm-209.13 5.13c9.3 16.5 17.76 30.45 38.1 30.45 19.45 0 31.72-7.61 31.72-37.2v-201.3h59.2v202.1c0 61.3-35.94 89.2-88.4 89.2-47.4 0-74.85-24.53-88.81-54.075z"/>
    </symbol>

    <!-- typescript icon -->
    <symbol id="typescript" fill="none" viewBox="0 0 512 512">
      <rect fill="#3178c6" height="512" rx="50" width="512"/>
      <rect fill="#3178c6" height="512" rx="50" width="512"/>
      <path clip-rule="evenodd" fill="#fff" fill-rule="evenodd" d="m316.939 407.424v50.061c8.138 4.172 17.763 7.3 28.875 9.386s22.823 3.129 35.135 3.129c11.999 0 23.397-1.147 34.196-3.442 10.799-2.294 20.268-6.075 28.406-11.342 8.138-5.266 14.581-12.15 19.328-20.65s7.121-19.007 7.121-31.522c0-9.074-1.356-17.026-4.069-23.857s-6.625-12.906-11.738-18.225c-5.112-5.319-11.242-10.091-18.389-14.315s-15.207-8.213-24.18-11.967c-6.573-2.712-12.468-5.345-17.685-7.9-5.217-2.556-9.651-5.163-13.303-7.822-3.652-2.66-6.469-5.476-8.451-8.448-1.982-2.973-2.974-6.336-2.974-10.091 0-3.441.887-6.544 2.661-9.308s4.278-5.136 7.512-7.118c3.235-1.981 7.199-3.52 11.894-4.615 4.696-1.095 9.912-1.642 15.651-1.642 4.173 0 8.581.313 13.224.938 4.643.626 9.312 1.591 14.008 2.894 4.695 1.304 9.259 2.947 13.694 4.928 4.434 1.982 8.529 4.276 12.285 6.884v-46.776c-7.616-2.92-15.937-5.084-24.962-6.492s-19.381-2.112-31.066-2.112c-11.895 0-23.163 1.278-33.805 3.833s-20.006 6.544-28.093 11.967c-8.086 5.424-14.476 12.333-19.171 20.729-4.695 8.395-7.043 18.433-7.043 30.114 0 14.914 4.304 27.638 12.912 38.172 8.607 10.533 21.675 19.45 39.204 26.751 6.886 2.816 13.303 5.579 19.25 8.291s11.086 5.528 15.415 8.448c4.33 2.92 7.747 6.101 10.252 9.543 2.504 3.441 3.756 7.352 3.756 11.733 0 3.233-.783 6.231-2.348 8.995s-3.939 5.162-7.121 7.196-7.147 3.624-11.894 4.771c-4.748 1.148-10.303 1.721-16.668 1.721-10.851 0-21.597-1.903-32.24-5.71-10.642-3.806-20.502-9.516-29.579-17.13zm-84.159-123.342h64.22v-41.082h-179v41.082h63.906v182.918h50.874z"/>
    </symbol>

    <!-- tailwind icon -->
    <symbol id="tailwind" viewBox="0 0 47 40" fill="none">
      <path fill="#6366f1" d="M23.5 6.5C17.5 6.5 13.75 9.5 12.25 15.5C14.5 12.5 17.125 11.375 20.125 12.125C21.8367 12.5529 23.0601 13.7947 24.4142 15.1692C26.6202 17.4084 29.1734 20 34.75 20C40.75 20 44.5 17 46 11C43.75 14 41.125 15.125 38.125 14.375C36.4133 13.9471 35.1899 12.7053 33.8357 11.3308C31.6297 9.09158 29.0766 6.5 23.5 6.5ZM12.25 20C6.25 20 2.5 23 1 29C3.25 26 5.875 24.875 8.875 25.625C10.5867 26.0529 11.8101 27.2947 13.1642 28.6693C15.3702 30.9084 17.9234 33.5 23.5 33.5C29.5 33.5 33.25 30.5 34.75 24.5C32.5 27.5 29.875 28.625 26.875 27.875C25.1633 27.4471 23.9399 26.2053 22.5858 24.8307C20.3798 22.5916 17.8266 20 12.25 20Z"/>
    </symbol>

  <symbol id="symfony" fill="#ffffff" viewBox="0 0 14 14" role="img" focusable="false" aria-hidden="true" xmlns="http://www.w3.org/2000/svg" stroke="#ffffff"><g id="SVGRepo_bgCarrier" stroke-width="0"></g><g id="SVGRepo_tracerCarrier" stroke-linecap="round" stroke-linejoin="round"></g><g id="SVGRepo_iconCarrier"><path d="m 11.1016,1.0014512 c -0.901334,0.03135 -1.6874537,0.52826 -2.2729287,1.214841 -0.64896,0.753202 -1.080032,1.646697 -1.390404,2.559004 -0.555692,-0.45537 -0.984413,-1.044763 -1.876342,-1.302623 -0.689716,-0.198294 -1.413134,-0.116782 -2.079337,0.379344 -0.315859,0.235914 -0.532963,0.591745 -0.6356362,0.926414 -0.2680487,0.869983 0.2805892,1.644346 0.5306112,1.922583 l 0.544719,0.583124 c 0.112079,0.11443 0.382479,0.413046 0.250806,0.841767 -0.142646,0.466342 -0.704608,0.767309 -1.279894,0.590178 -0.2570758,-0.07994 -0.6270145,-0.271184 -0.543935,-0.540017 0.033702,-0.110511 0.1128626,-0.19359 0.1559699,-0.288426 0.038405,-0.0823 0.057215,-0.14343 0.068972,-0.179483 0.1050249,-0.344075 -0.038405,-0.790822 -0.405992,-0.904469 -0.3432905,-0.105025 -0.6944187,-0.02194 -0.8307944,0.4201 -0.1544023,0.502395 0.085431,1.413134 1.3723783,1.810505 1.5079702,0.463207 2.7831612,-0.358182 2.9642112,-1.428026 0.11443,-0.670122 -0.188888,-1.169382 -0.743796,-1.809721 l -0.451451,-0.499261 c -0.274318,-0.274318 -0.367587,-0.739877 -0.08465,-1.098059 0.23905,-0.302534 0.579989,-0.431072 1.137248,-0.279805 0.814336,0.220239 1.17722,0.786119 1.782289,1.241489 -0.250022,0.819821 -0.413046,1.642778 -0.561178,2.381872 l -0.09092,0.550205 c -0.433424,2.2705768 -0.76339,3.5167678 -1.6224,4.2331328 -0.173213,0.123051 -0.4201,0.307237 -0.793174,0.320561 -0.195158,0.0063 -0.258643,-0.128538 -0.261778,-0.187321 -0.0039,-0.137159 0.111295,-0.199861 0.188104,-0.261778 0.11443,-0.0627 0.288427,-0.166943 0.27667,-0.498477 -0.01254,-0.393452 -0.338588,-0.734391 -0.808849,-0.717932 -0.352695,0.01176 -0.8895763,0.343291 -0.8691983,0.950711 0.021162,0.627015 0.6050683,1.097276 1.4868083,1.066709 0.471045,-0.01568 1.523645,-0.207699 2.560571,-1.439783 1.207003,-1.413134 1.544023,-3.0331828 1.798748,-4.2190238 l 0.28294,-1.565186 c 0.157538,0.01881 0.326048,0.03135 0.50945,0.03605 1.5024837,0.03213 2.2541167,-0.746931 2.2658737,-1.312812 0.0071,-0.342507 -0.224942,-0.680311 -0.550205,-0.672473 -0.23278,0.0071 -0.525125,0.161456 -0.594881,0.483585 -0.06819,0.315858 0.478099,0.60115 0.05016,0.87782 -0.303319,0.196726 -0.8480377,0.335453 -1.6145627,0.22259 l 0.139511,-0.770444 c 0.284508,-1.460944 0.635636,-3.258125 1.9664737,-3.301232 0.09719,-0.0047 0.452235,0.0039 0.460072,0.239049 0.0024,0.07838 -0.01646,0.09876 -0.108943,0.278238 -0.09405,0.139511 -0.128538,0.258644 -0.12462,0.395803 0.01332,0.373074 0.297049,0.618393 0.706959,0.603502 0.549422,-0.01803 0.706959,-0.552557 0.698338,-0.82766 -0.02273,-0.645825 -0.703824,-1.05416801 -1.60359,-1.025169 z">
  </path></g></symbol>

  <symbol id="php" viewBox="0 0 32 32" fill="none" xmlns="http://www.w3.org/2000/svg"><g id="SVGRepo_bgCarrier" stroke-width="0"></g><g id="SVGRepo_tracerCarrier" stroke-linecap="round" stroke-linejoin="round"></g><g id="SVGRepo_iconCarrier"> <circle cx="16" cy="16" r="14" fill="#8892BF"></circle> <path d="M14.4392 10H16.1192L15.6444 12.5242H17.154C17.9819 12.5419 18.5986 12.7269 19.0045 13.0793C19.4184 13.4316 19.5402 14.1014 19.3698 15.0881L18.5541 19.4889H16.8497L17.6288 15.2863C17.7099 14.8457 17.6856 14.533 17.5558 14.348C17.426 14.163 17.146 14.0705 16.7158 14.0705L15.3644 14.0573L14.3661 19.4889H12.6861L14.4392 10Z" fill="white"></path> <path fill-rule="evenodd" clip-rule="evenodd" d="M6.74092 12.5243H10.0036C10.9612 12.533 11.6552 12.8327 12.0854 13.4229C12.5156 14.0132 12.6576 14.8193 12.5115 15.8414C12.4548 16.3085 12.3289 16.7665 12.1341 17.2159C11.9474 17.6652 11.6878 18.0704 11.355 18.4317C10.9491 18.8898 10.5149 19.1805 10.0523 19.304C9.58969 19.4274 9.11076 19.489 8.61575 19.489H7.15484L6.69222 22H5L6.74092 12.5243ZM7.43485 17.9956L8.16287 14.0441H8.40879C8.49815 14.0441 8.5914 14.0396 8.6888 14.0309C9.33817 14.0221 9.87774 14.0882 10.308 14.2291C10.7462 14.37 10.8923 14.9031 10.7462 15.8282C10.5678 16.9296 10.2186 17.5727 9.69926 17.7577C9.1799 17.934 8.53053 18.0176 7.75138 18.0088H7.58094C7.53224 18.0088 7.48355 18.0043 7.43485 17.9956Z" fill="white"></path> <path fill-rule="evenodd" clip-rule="evenodd" d="M24.4365 12.5243H21.1738L19.4329 22H21.1251L21.5878 19.489H23.0487C23.5437 19.489 24.0226 19.4274 24.4852 19.304C24.9479 19.1805 25.382 18.8898 25.7879 18.4317C26.1207 18.0704 26.3803 17.6652 26.567 17.2159C26.7618 16.7665 26.8877 16.3085 26.9444 15.8414C27.0905 14.8193 26.9486 14.0132 26.5183 13.4229C26.0881 12.8327 25.3942 12.533 24.4365 12.5243ZM22.5958 14.0441L21.8678 17.9956C21.9165 18.0043 21.9652 18.0088 22.0139 18.0088H22.1843C22.9635 18.0176 23.6128 17.934 24.1322 17.7577C24.6515 17.5727 25.0007 16.9296 25.1792 15.8282C25.3253 14.9031 25.1792 14.37 24.7409 14.2291C24.3107 14.0882 23.7711 14.0221 23.1217 14.0309C23.0243 14.0396 22.9311 14.0441 22.8417 14.0441H22.5958Z" fill="white"></path> </g></symbol>

  <symbol id="vuejs" viewBox="0 -17.5 256 256" xmlns="http://www.w3.org/2000/svg" preserveAspectRatio="xMinYMin meet" fill="#000000"><g id="SVGRepo_bgCarrier" stroke-width="0"></g><g id="SVGRepo_tracerCarrier" stroke-linecap="round" stroke-linejoin="round"></g><g id="SVGRepo_iconCarrier"><path d="M204.8 0H256L128 220.8 0 0h97.92L128 51.2 157.44 0h47.36z" fill="#41B883"></path><path d="M0 0l128 220.8L256 0h-51.2L128 132.48 50.56 0H0z" fill="#41B883"></path><path d="M50.56 0L128 133.12 204.8 0h-47.36L128 51.2 97.92 0H50.56z" fill="#35495E"></path></g></symbol>
<symbol id="nuxt" viewBox="0 0 32 32" xmlns="http://www.w3.org/2000/svg" fill="#000000"><g id="SVGRepo_bgCarrier" stroke-width="0"></g><g id="SVGRepo_tracerCarrier" stroke-linecap="round" stroke-linejoin="round"></g><g id="SVGRepo_iconCarrier"><title>file_type_nuxt</title><path d="M10.648,25.734a1.465,1.465,0,0,1-.157-.942H3.847L13.716,7.417l4.159,7.41,1.308-.976L15.076,6.467A1.752,1.752,0,0,0,13.7,5.56a1.531,1.531,0,0,0-1.343.924l-10,17.593a1.729,1.729,0,0,0-.087,1.656,1.526,1.526,0,0,0,1.456.706H12.1a1.523,1.523,0,0,1-1.456-.7Z" style="fill:#00c58e"></path><path d="M29.636,24.112,21.589,9.823a1.692,1.692,0,0,0-1.351-.907,1.489,1.489,0,0,0-1.308.907l-1.064,1.7v3.3l2.371-4.071,7.951,14.071H25.163a1.377,1.377,0,0,1-.122.837l-.026.052a1.729,1.729,0,0,1-1.456.732h4.734a1.72,1.72,0,0,0,1.456-.732,1.548,1.548,0,0,0-.122-1.6Z" style="fill:#108775"></path><path d="M25.233,25.7l.026-.052.07-.139a1.278,1.278,0,0,0,.061-.7,2.11,2.11,0,0,0-.27-.724l-6.286-10.9-.95-1.656h-.017l-.959,1.648-6.277,10.9a2.18,2.18,0,0,0-.244.715,1.438,1.438,0,0,0,.148.942,1.563,1.563,0,0,0,1.482.7H23.725a1.79,1.79,0,0,0,1.508-.741ZM17.866,14.836,23.62,24.8H12.112Z" style="fill:#2f495e"></path></g></symbol>
  <symbol id="jquery" xmlns="http://www.w3.org/2000/svg" viewBox="0 0 128 128"><path fill="#0868AC" d="M47.961 79.02l.193.094.344.166c.439.209.882.416 1.329.615l.281.125c.513.225 1.029.439 1.551.645l.378.148c.482.188.972.37 1.463.543l.184.063c.539.188 1.083.363 1.632.534l.395.117c.558.169 1.109.37 1.685.477 36.554 6.665 47.171-21.967 47.171-21.967-8.918 11.618-24.747 14.683-39.745 11.271-.568-.128-1.12-.306-1.674-.47l-.417-.126c-.541-.166-1.079-.341-1.612-.524l-.221-.08c-.478-.168-.951-.346-1.421-.527l-.398-.156c-.516-.203-1.028-.416-1.534-.638l-.307-.136c-.435-.197-.866-.396-1.294-.602l-.375-.18c-.336-.164-.669-.339-1.001-.51l-.668-.35c-.405-.217-.803-.442-1.199-.673l-.405-.226c-.527-.311-1.048-.632-1.563-.958l-.421-.28c-.374-.241-.746-.486-1.112-.739l-.358-.252c-.354-.25-.704-.503-1.051-.76l-.466-.353c-.318-.243-.635-.488-.948-.74l-.423-.34c-.398-.328-.792-.657-1.182-.995l-.129-.109c-.423-.368-.836-.747-1.244-1.127l-.35-.337c-.303-.287-.6-.577-.893-.874l-.35-.35c-.372-.381-.737-.767-1.095-1.158l-.054-.058c-.379-.414-.749-.837-1.111-1.264l-.291-.346c-.27-.325-.538-.655-.799-.988l-.293-.364c-.315-.408-.622-.815-.923-1.229-8.326-11.358-11.318-27.023-4.663-39.888l-5.899 7.482c-7.559 10.863-6.617 24.997-.844 36.541l.423.821.271.52.168.299.301.539c.179.316.362.63.55.944l.315.519c.208.336.421.668.64 1l.272.422c.301.448.609.896.926 1.336l.027.035.156.211c.275.379.558.753.844 1.123l.318.404c.255.321.516.641.78.959l.298.355c.355.419.717.835 1.087 1.242l.022.023.042.046c.36.394.73.778 1.104 1.164l.354.357c.29.292.584.579.882.865l.361.343c.397.374.798.741 1.208 1.101l.02.015.21.18c.361.312.729.623 1.099.928l.455.362c.302.242.608.481.916.716l.489.372c.34.25.682.496 1.027.737l.375.266.103.073c.328.226.663.442.998.659l.432.288c.513.325 1.035.646 1.562.956l.432.244c.388.223.777.442 1.172.656l.648.336.84.437zM51.654 42.225c.819 1.174 1.726 2.57 2.813 3.514.394.434.806.856 1.226 1.273l.324.318c.409.396.824.785 1.252 1.164l.052.044.012.013c.475.416.965.816 1.463 1.21l.333.26c.5.383 1.009.759 1.531 1.118l.045.033.698.46.332.22c.373.238.75.472 1.135.694l.16.093c.331.191.667.379 1.003.561l.356.187.702.363.106.048c.482.237.968.465 1.464.682l.323.133c.396.168.797.333 1.199.487l.514.188c.366.136.732.26 1.102.383l.499.16c.526.163 1.045.369 1.593.46 28.222 4.677 34.738-17.054 34.738-17.054-5.874 8.459-17.248 12.494-29.386 9.344-.539-.142-1.071-.295-1.598-.462l-.481-.155c-.375-.121-.748-.25-1.118-.385l-.504-.188c-.405-.156-.807-.317-1.204-.485l-.324-.138c-.498-.217-.989-.445-1.472-.685l-.739-.376-.426-.219c-.314-.17-.626-.348-.934-.527l-.223-.127c-.383-.223-.759-.453-1.132-.689l-.341-.229-.732-.484c-.521-.359-1.027-.734-1.525-1.115l-.343-.271c-5.313-4.193-9.524-9.927-11.527-16.428-2.098-6.74-1.646-14.308 1.989-20.449l-4.466 6.306c-5.466 7.865-5.169 18.396-.905 26.715.714 1.393 1.517 2.747 2.416 4.035zM81.401 32.494l.701.243.309.098c.333.104.662.226 1.005.29 15.583 3.011 19.811-7.997 20.936-9.617-3.703 5.331-9.925 6.61-17.56 4.757-.603-.146-1.266-.363-1.848-.57-.745-.266-1.479-.568-2.193-.91-1.356-.652-2.648-1.441-3.846-2.347-6.832-5.185-11.076-15.072-6.618-23.126l-2.412 3.324c-3.222 4.743-3.539 10.633-1.303 15.869 2.358 5.56 7.19 9.92 12.829 11.989zM66.359 96.295h-4.226c-.234 0-.467.188-.517.417l-1.5 6.94-1.5 6.94c-.049.229-.282.417-.516.417h-2.991c-2.959 0-2.617-2.047-2.011-4.851l.018-.085.066-.354.012-.066.135-.72.145-.771.154-.785.682-3.332.683-3.332c.047-.23-.107-.419-.341-.419h-4.337c-.234 0-.466.188-.514.418l-.933 4.424-.932 4.425-.002.006-.086.412c-1.074 4.903-.79 9.58 5.048 9.727l.17.003h9.163c.234 0 .467-.188.516-.417l1.976-9.289 1.976-9.29c.049-.23-.103-.417-.338-.418zM21.103 96.246h-4.64c-.235 0-.469.188-.521.416l-.44 1.942-.44 1.942c-.051.229.098.416.333.416h4.676c.235 0 .468-.188.518-.417l.425-1.941.425-1.941c.049-.229-.101-.417-.336-.417zM19.757 102.29h-4.677c-.234 0-.469.188-.521.416l-.657 2.91-.656 2.909-.183.834-.631 2.97-.63 2.971c-.049.229-.15.599-.225.821 0 0-.874 2.6-2.343 2.57l-.184-.004-1.271-.023h-.001c-.234-.003-.469.18-.524.407l-.485 2.039-.484 2.038c-.055.228.093.416.326.42.833.01 2.699.031 3.828.031 3.669 0 5.604-2.033 6.843-7.883l1.451-6.714 1.361-6.297c.049-.227-.103-.415-.337-.415zM105.874 100.716l-.194-.801-.191-.82-.097-.414c-.38-1.477-1.495-2.328-3.917-2.328l-3.77-.004-3.472-.005h-3.907c-.234 0-.466.188-.515.417l-.173.816-.204.964-.057.271-1.759 8.24-1.67 7.822c-.05.23-.066.512-.038.626.028.115.479.209.713.209h3.524c.235 0 .532-.042.66-.094s.317-.513.364-.742l.626-3.099.627-3.1.001-.005.084-.413.76-3.56.671-3.144c.05-.229.281-.416.515-.417l11.089-.005c.235.002.383-.185.33-.414zM120.149 93.476l-.854.003h-3.549c-.235 0-.536.159-.667.353l-7.849 11.498c-.132.194-.283.166-.335-.062l-.578-2.533c-.052-.229-.287-.416-.522-.416h-5.045c-.235 0-.374.184-.31.409l2.261 7.921c.064.226.069.596.011.824l-.985 3.833c-.059.228.085.413.32.413h4.987c.234 0 .474-.186.532-.413l.986-3.833c.058-.229.221-.567.363-.755l12.742-16.911c.142-.188.065-.341-.169-.339l-1.339.008zM80.063 103.395v-.004c-.029.254-.264.441-.499.441h-6.397c-.222 0-.334-.15-.301-.336l.006-.015-.004.002.003-.021.029-.109c.611-1.624 1.855-2.69 4.194-2.69 2.634-.001 3.148 1.285 2.969 2.732zm-1.877-7.384c-8.211 0-10.157 4.984-11.249 10.015-1.091 5.128-.998 9.921 7.5 9.921h1.03l.256-.001h.06l1.02-.003h.018c2.244-.009 4.495-.026 5.406-.033.233-.004.461-.191.509-.42l.344-1.681.067-.327.41-2.006c.047-.229-.106-.418-.341-.418h-7.639c-3.039 0-3.941-.807-3.608-3.181h12.211l-.001.001.008-.001c.194-.003.374-.137.445-.315l.029-.106-.001.001c1.813-6.839 1.293-11.445-6.474-11.446zM39.376 103.369l-.116.409v.001l-.922 3.268-.922 3.267c-.063.227-.308.411-.543.411h-4.88c-3.702 0-4.604-2.896-3.702-7.166.901-4.368 2.668-7.083 6.312-7.358 4.98-.376 5.976 3.126 4.773 7.168zm3.348 7.105s2.301-5.588 2.823-8.814c.713-4.319-1.45-10.585-9.804-10.585-8.306 0-11.914 5.981-13.29 12.484-1.376 6.55.427 12.293 8.686 12.246l6.516-.024 6.089-.022c.234-.002.474-.188.534-.414l1.061-4.046c.059-.228-.084-.414-.319-.416l-1.017-.006-1.017-.006c-.199-.001-.313-.131-.289-.302l.027-.095zM83.844 106.733c0 .155-.125.281-.28.281-.154 0-.28-.126-.28-.281 0-.154.125-.279.28-.279.155 0 .28.125.28.279z"></path></symbol>
  </defs>

  <symbol id="mysql" viewBox="-18.458 -22.75 191.151 191.151" xmlns="http://www.w3.org/2000/svg" fill="#000000"><g id="SVGRepo_bgCarrier" stroke-width="0"></g><g id="SVGRepo_tracerCarrier" stroke-linecap="round" stroke-linejoin="round"></g><g id="SVGRepo_iconCarrier"><path d="M-18.458 6.58h191.151v132.49H-18.458V6.58z" fill="none"></path><path d="M40.054 113.583h-5.175c-.183-8.735-.687-16.947-1.511-24.642h-.046l-7.879 24.642h-3.94l-7.832-24.642h-.045c-.581 7.388-.947 15.602-1.099 24.642H7.81c.304-10.993 1.068-21.299 2.289-30.919h6.414l7.465 22.719h.046l7.511-22.719h6.137c1.344 11.268 2.138 21.575 2.382 30.919M62.497 90.771c-2.107 11.434-4.887 19.742-8.337 24.928-2.688 3.992-5.633 5.99-8.84 5.99-.855 0-1.91-.258-3.16-.77v-2.757c.611.088 1.328.138 2.152.138 1.498 0 2.702-.412 3.62-1.238 1.098-1.006 1.647-2.137 1.647-3.388 0-.858-.428-2.612-1.282-5.268L42.618 90.77h5.084l4.076 13.19c.916 2.995 1.298 5.086 1.145 6.277 2.229-5.953 3.786-12.444 4.673-19.468h4.901v.002z" fill="#5d87a1"></path><path d="M131.382 113.583h-14.7V82.664h4.945v27.113h9.755v3.806zM112.834 114.33l-5.684-2.805c.504-.414.986-.862 1.42-1.381 2.416-2.838 3.621-7.035 3.621-12.594 0-10.229-4.014-15.346-12.045-15.346-3.938 0-7.01 1.298-9.207 3.895-2.414 2.84-3.619 7.022-3.619 12.551 0 5.435 1.068 9.422 3.205 11.951 1.955 2.291 4.902 3.438 8.843 3.438 1.47 0 2.819-.18 4.048-.543l7.4 4.308 2.018-3.474zm-18.413-6.934c-1.252-2.014-1.878-5.248-1.878-9.707 0-7.785 2.365-11.682 7.1-11.682 2.475 0 4.289.932 5.449 2.792 1.25 2.017 1.879 5.222 1.879 9.619 0 7.849-2.367 11.774-7.099 11.774-2.476.001-4.29-.928-5.451-2.796M85.165 105.013c0 2.622-.962 4.773-2.884 6.458-1.924 1.678-4.504 2.519-7.737 2.519-3.024 0-5.956-.966-8.794-2.888l1.329-2.655c2.442 1.223 4.653 1.831 6.638 1.831 1.863 0 3.319-.413 4.375-1.232 1.055-.822 1.684-1.975 1.684-3.433 0-1.837-1.281-3.407-3.631-4.722-2.167-1.19-6.501-3.678-6.501-3.678-2.349-1.712-3.525-3.55-3.525-6.578 0-2.506.877-4.529 2.632-6.068 1.757-1.545 4.024-2.315 6.803-2.315 2.87 0 5.479.769 7.829 2.291l-1.192 2.656c-2.01-.854-3.994-1.281-5.951-1.281-1.585 0-2.809.381-3.66 1.146-.858.762-1.387 1.737-1.387 2.933 0 1.828 1.308 3.418 3.722 4.759 2.196 1.192 6.638 3.723 6.638 3.723 2.409 1.709 3.612 3.53 3.612 6.534" fill="#f8981d"></path><path d="M137.59 72.308c-2.99-.076-5.305.225-7.248 1.047-.561.224-1.453.224-1.531.933.303.3.338.784.601 1.198.448.747 1.229 1.752 1.942 2.276.783.6 1.569 1.194 2.393 1.717 1.453.899 3.1 1.422 4.516 2.318.825.521 1.645 1.195 2.471 1.756.406.299.666.784 1.193.971v-.114c-.264-.336-.339-.822-.598-1.196l-1.122-1.082c-1.084-1.456-2.431-2.727-3.884-3.771-1.196-.824-3.812-1.944-4.297-3.322l-.076-.076c.822-.077 1.797-.375 2.578-.604 1.271-.335 2.43-.259 3.734-.594.6-.15 1.195-.338 1.797-.523v-.337c-.676-.673-1.158-1.567-1.869-2.203-1.902-1.643-3.998-3.25-6.164-4.595-1.16-.749-2.652-1.231-3.887-1.868-.445-.225-1.195-.336-1.457-.71-.67-.822-1.047-1.904-1.533-2.877-1.08-2.053-2.129-4.331-3.061-6.502-.674-1.456-1.084-2.91-1.906-4.257-3.85-6.35-8.031-10.196-14.457-13.971-1.381-.786-3.024-1.121-4.779-1.533l-2.803-.148c-.598-.262-1.197-.973-1.719-1.309-2.132-1.344-7.621-4.257-9.189-.411-1.01 2.431 1.494 4.821 2.354 6.054.635.856 1.458 1.83 1.902 2.802.263.635.337 1.309.6 1.98.598 1.644 1.157 3.473 1.943 5.007.41.782.857 1.604 1.381 2.312.3.414.822.597.936 1.272-.521.744-.562 1.867-.861 2.801-1.344 4.221-.819 9.45 1.086 12.552.596.934 2.018 2.99 3.92 2.202 1.684-.672 1.311-2.801 1.795-4.668.111-.451.038-.747.262-1.043v.073c.521 1.045 1.047 2.052 1.53 3.1 1.159 1.829 3.177 3.735 4.858 5.002.895.676 1.604 1.832 2.725 2.245V74.1h-.074c-.227-.335-.559-.485-.857-.745-.674-.673-1.42-1.495-1.943-2.241-1.566-2.093-2.952-4.41-4.182-6.801-.602-1.16-1.121-2.428-1.606-3.586-.226-.447-.226-1.121-.601-1.346-.562.821-1.381 1.532-1.791 2.538-.711 1.609-.785 3.588-1.049 5.646l-.147.072c-1.19-.299-1.604-1.53-2.056-2.575-1.119-2.654-1.307-6.914-.336-9.976.26-.783 1.385-3.249.936-3.995-.225-.715-.973-1.122-1.383-1.685-.482-.708-1.01-1.604-1.346-2.39-.896-2.091-1.347-4.408-2.312-6.498-.451-.974-1.234-1.982-1.868-2.879-.712-1.008-1.495-1.718-2.058-2.913-.186-.411-.447-1.083-.148-1.53.073-.3.225-.412.523-.487.484-.409 1.867.111 2.352.336 1.385.56 2.543 1.083 3.699 1.867.523.375 1.084 1.085 1.755 1.272h.786c1.193.26 2.538.072 3.661.41 1.979.636 3.772 1.569 5.38 2.576 4.893 3.103 8.928 7.512 11.652 12.778.447.858.637 1.644 1.045 2.539.787 1.832 1.76 3.7 2.541 5.493.785 1.755 1.533 3.547 2.654 5.005.559.784 2.805 1.195 3.812 1.606.745.335 1.905.633 2.577 1.044 1.271.783 2.537 1.682 3.732 2.543.595.448 2.465 1.382 2.576 2.13M99.484 39.844a5.82 5.82 0 0 0-1.529.188v.075h.072c.301.597.824 1.011 1.197 1.532.301.599.562 1.193.857 1.791l.072-.074c.527-.373.789-.971.789-1.868-.227-.264-.262-.522-.451-.784-.22-.374-.705-.56-1.007-.86" fill="#5d87a1"></path><path d="M141.148 113.578h.774v-3.788h-1.161l-.947 2.585-1.029-2.585h-1.118v3.788h.731v-2.882h.041l1.078 2.882h.557l1.074-2.882v2.882zm-6.235 0h.819v-3.146h1.072v-.643h-3.008v.643h1.115l.002 3.146z" fill="#f8981d"></path></g></symbol>

 <symbol id="express" width='24' height='24' viewBox='0 0 24 24' xmlns='http://www.w3.org/2000/svg' xmlns:xlink='http://www.w3.org/1999/xlink'><rect width='24' height='24' stroke='none' fill='#000000' opacity='0'/>


<g transform="matrix(0.42 0 0 0.42 12 12)" >
<g style="" >
<g transform="matrix(1 0 0 1 10.5 1.28)" >
<path style="stroke: none; stroke-width: 1; stroke-dasharray: none; stroke-linecap: butt; stroke-dashoffset: 0; stroke-linejoin: miter; stroke-miterlimit: 4; fill: rgb(33,33,33); fill-rule: nonzero; opacity: 1;" transform=" translate(-34.5, -25.28)" d="M 23.697 37.56 L 24.877 37.56 C 25.717 37.56 26.508 37.168 27.016 36.499 L 34.501 26.652 L 41.986 36.499 C 42.494 37.167 43.285 37.56 44.125 37.56 L 45.305 37.56 L 35.756 25 L 44.877 13 L 43.697 13 C 42.857 13 42.066 13.392 41.558 14.061 L 34.5 23.347 L 27.441 14.06 C 26.933 13.392 26.142 13 25.302 13 L 24.122 13 L 33.243 25 L 23.697 37.56 z" stroke-linecap="round" />
</g>
<g transform="matrix(1 0 0 1 -11 1)" >
<path style="stroke: none; stroke-width: 1; stroke-dasharray: none; stroke-linecap: butt; stroke-dashoffset: 0; stroke-linejoin: miter; stroke-miterlimit: 4; fill: rgb(33,33,33); fill-rule: nonzero; opacity: 1;" transform=" translate(-13, -25)" d="M 24 26 L 24 23 C 24 16.325 18.055 11.039 11.171 12.148 C 5.812 13.011 2 17.857 2 23.284 L 2 24 L 2 26 L 2 26.142 C 2 32.695 6.777 37.928 12.868 38 C 17.96 38.06 22.256999999999998 34.656 23.575000000000003 30.001 L 22.547000000000004 30.001 C 21.927000000000003 30.001 21.365000000000006 30.356 21.096000000000004 30.914 C 19.357000000000003 34.509 15.307000000000004 36.776 10.868000000000004 35.756 C 6.776 34.815 4 30.981 4 26.783 L 4 26 L 24 26 z M 4 23.71 C 4 19.002000000000002 6.804 15.153 10.924 14.232000000000001 C 16.798 12.92 22 17.352 22 23 L 22 24 L 4 24 L 4 23.71 z" stroke-linecap="round" />
</g>
</g>
</g>
</symbol>

<symbol id="react" class="svg-icon" style="width: 1em;height: 1em;vertical-align: middle;fill: currentColor;overflow: hidden;" viewBox="0 0 1024 1024" version="1.1" xmlns="http://www.w3.org/2000/svg"><path d="M512 431.36c43.946667 0 79.786667 35.84 79.786667 80.64 0 42.666667-35.84 78.933333-79.786667 78.933333S432.213333 554.666667 432.213333 512c0-44.8 35.84-80.64 79.786667-80.64M314.453333 853.333333c26.88 16.213333 85.76-8.533333 153.6-72.533333-22.186667-25.173333-43.946667-52.48-64.426666-81.066667a968.533333 968.533333 0 0 1-102.4-15.36c-21.76 91.306667-13.653333 154.026667 13.226666 168.96m30.293334-244.906666l-12.373334-21.76c-4.693333 12.373333-9.386667 24.746667-12.373333 36.693333 11.52 2.56 24.32 4.693333 37.546667 6.826667l-12.8-21.76m279.04-32.426667l34.56-64-34.56-64c-12.8-22.613333-26.453333-42.666667-38.826667-62.72C561.92 384 537.6 384 512 384s-49.92 0-72.96 1.28c-12.373333 20.053333-26.026667 40.106667-38.826667 62.72L365.653333 512l34.56 64c12.8 22.613333 26.453333 42.666667 38.826667 62.72 23.04 1.28 47.36 1.28 72.96 1.28s49.92 0 72.96-1.28c12.373333-20.053333 26.026667-40.106667 38.826667-62.72M512 289.28c-8.106667 9.386667-16.64 19.2-25.173333 30.72h50.346666c-8.533333-11.52-17.066667-21.333333-25.173333-30.72m0 445.44c8.106667-9.386667 16.64-19.2 25.173333-30.72h-50.346666c8.533333 11.52 17.066667 21.333333 25.173333 30.72M709.12 170.666667c-26.453333-16.213333-85.333333 8.533333-153.173333 72.533333 22.186667 25.173333 43.946667 52.48 64.426666 81.066667 34.986667 3.413333 69.546667 8.533333 102.4 15.36 21.76-91.306667 13.653333-154.026667-13.653333-168.96m-29.866667 244.906666l12.373334 21.76c4.693333-12.373333 9.386667-24.746667 12.373333-36.693333-11.52-2.56-24.32-4.693333-37.546667-6.826667l12.8 21.76m61.866667-300.8c62.72 35.84 69.546667 130.133333 43.093333 240.213334 108.373333 32 186.453333 84.906667 186.453334 157.013333s-78.08 125.013333-186.453334 157.013333c26.453333 110.08 19.626667 204.373333-43.093333 240.213334-62.293333 35.84-147.2-5.12-229.12-83.2-81.92 78.08-166.826667 119.04-229.546667 83.2-62.293333-35.84-69.12-130.133333-42.666666-240.213334-108.373333-32-186.453333-84.906667-186.453334-157.013333s78.08-125.013333 186.453334-157.013333c-26.453333-110.08-19.626667-204.373333 42.666666-240.213334 62.72-35.84 147.626667 5.12 229.546667 83.2 81.92-78.08 166.826667-119.04 229.12-83.2M728.746667 512c14.506667 32 27.306667 64 37.973333 96.426667 89.6-26.88 139.946667-65.28 139.946667-96.426667s-50.346667-69.546667-139.946667-96.426667c-10.666667 32.426667-23.466667 64.426667-37.973333 96.426667M295.253333 512c-14.506667-32-27.306667-64-37.973333-96.426667-89.6 26.88-139.946667 65.28-139.946667 96.426667s50.346667 69.546667 139.946667 96.426667c10.666667-32.426667 23.466667-64.426667 37.973333-96.426667m384 96.426667l-12.8 21.76c13.226667-2.133333 26.026667-4.266667 37.546667-6.826667-2.986667-11.946667-7.68-24.32-12.373333-36.693333l-12.373334 21.76m-123.306666 172.373333c67.84 64 126.72 88.746667 153.173333 72.533333 27.306667-14.933333 35.413333-77.653333 13.653333-168.96-32.853333 6.826667-67.413333 11.946667-102.4 15.36-20.48 28.586667-42.24 55.893333-64.426666 81.066667M344.746667 415.573333l12.8-21.76c-13.226667 2.133333-26.026667 4.266667-37.546667 6.826667 2.986667 11.946667 7.68 24.32 12.373333 36.693333l12.373334-21.76m123.306666-172.373333C400.213333 179.2 341.333333 154.453333 314.453333 170.666667c-26.88 14.933333-34.986667 77.653333-13.226666 168.96a968.533333 968.533333 0 0 1 102.4-15.36c20.48-28.586667 42.24-55.893333 64.426666-81.066667z" fill="#00BCD4" /></symbol>

<symbol id="mongodb" viewBox="0 0 1024 1024" xmlns="http://www.w3.org/2000/svg" fill="#000000"><g id="SVGRepo_bgCarrier" stroke-width="0"></g><g id="SVGRepo_tracerCarrier" stroke-linecap="round" stroke-linejoin="round"></g><g id="SVGRepo_iconCarrier"> <circle cx="512" cy="512" r="512" style="fill:#13aa52"></circle> <path d="M648.86 449.44c-32.34-142.73-108.77-189.66-117-207.59-9-12.65-18.12-35.15-18.12-35.15-.15-.38-.39-1.05-.67-1.7-.93 12.65-1.41 17.53-13.37 30.29-18.52 14.48-113.54 94.21-121.27 256.37-7.21 151.24 109.25 241.36 125 252.85l1.79 1.27v-.11c.1.76 5 36 8.44 73.34H526a726.68 726.68 0 0 1 13-78.53l1-.65a204.48 204.48 0 0 0 20.11-16.45l.72-.65c33.48-30.93 93.67-102.47 93.08-216.53a347.07 347.07 0 0 0-5.05-56.76zM512.35 659.12s0-212.12 7-212.08c5.46 0 12.53 273.61 12.53 273.61-9.72-1.17-19.53-45.03-19.53-61.53z" style="fill:#fff"></path> </g></symbol>

</svg>